<?xml version="1.0" encoding="UTF-8" standalone="no"?>
<!-- Generator: Adobe Illustrator 19.0.0, SVG Export Plug-In . SVG Version: 6.00 Build 0)  -->

<svg
   xmlns:dc="http://purl.org/dc/elements/1.1/"
   xmlns:cc="http://creativecommons.org/ns#"
   xmlns:rdf="http://www.w3.org/1999/02/22-rdf-syntax-ns#"
   xmlns:svg="http://www.w3.org/2000/svg"
   xmlns="http://www.w3.org/2000/svg"
   xmlns:sodipodi="http://sodipodi.sourceforge.net/DTD/sodipodi-0.dtd"
   xmlns:inkscape="http://www.inkscape.org/namespaces/inkscape"
   version="1.1"
   id="Layer_1"
   x="0px"
   y="0px"
   viewBox="0 0 269.584 269.584"
   style="enable-background:new 0 0 269.584 269.584;"
   xml:space="preserve"
   sodipodi:docname="verre-a-martini.svg"
   inkscape:version="0.92.2 (5c3e80d, 2017-08-06)"><metadata
     id="metadata4829"><rdf:RDF><cc:Work
         rdf:about=""><dc:format>image/svg+xml</dc:format><dc:type
           rdf:resource="http://purl.org/dc/dcmitype/StillImage" /></cc:Work></rdf:RDF></metadata><defs
     id="defs4827" /><sodipodi:namedview
     pagecolor="#ffffff"
     bordercolor="#666666"
     borderopacity="1"
     objecttolerance="10"
     gridtolerance="10"
     guidetolerance="10"
     inkscape:pageopacity="0"
     inkscape:pageshadow="2"
     inkscape:window-width="1366"
     inkscape:window-height="705"
     id="namedview4825"
     showgrid="false"
     inkscape:zoom="0.83972969"
     inkscape:cx="-231.39726"
     inkscape:cy="141.37695"
     inkscape:window-x="-8"
     inkscape:window-y="-8"
     inkscape:window-maximized="1"
     inkscape:current-layer="g74" /><g
     id="g4794" /><g
     id="g4796" /><g
     id="g4798" /><g
     id="g4800" /><g
     id="g4802" /><g
     id="g4804" /><g
     id="g4806" /><g
     id="g4808" /><g
     id="g4810" /><g
     id="g4812" /><g
     id="g4814" /><g
     id="g4816" /><g
     id="g4818" /><g
     id="g4820" /><g
     id="g4822" /><g
     id="g74"
     transform="matrix(0.03659235,0,0,0.13491624,58.464474,-287.20142)"
     style="fill:#ff8300;fill-opacity:1"><g
       transform="matrix(1,0,0,-1,0,1536)"
       id="g72"
       style="fill:#ff9a2b;fill-opacity:1"><path
         d="m 1612.0391,-993.71113 c 0,40.67525 17.9741,79.04814 53.6794,114.92678 35.7052,35.87865 85.0126,67.34441 148.1648,94.10949 63.152,26.76509 135.5343,49.88475 217.3892,69.45492 82.0978,19.57017 170.2682,34.2478 264.7535,44.03288 94.4854,9.78509 190.6711,14.67763 289.0428,14.67763 150.5936,0 290.9859,-12.56712 420.6908,-37.60542 129.7049,-25.03831 235.1206,-61.49255 316.2469,-109.36272 81.1263,-47.87017 121.6894,-101.88 121.6894,-162.12543 0,-36.1664 -8.9871,-71.5654 -27.204,-106.1969 -18.217,-34.6316 -46.6356,-68.016 -85.7414,-99.9614 -39.1057,-31.9454 -86.7128,-60.1495 -143.064,-84.4203 -56.351,-24.2709 -125.3327,-43.6492 -207.4307,-58.2309 -82.0979,-14.4857 -172.2111,-21.7766 -270.3399,-21.7766 -64.8526,0 -129.2192,6.0437 -193.1,18.0353 -63.881,12.0874 -109.7878,28.5878 -137.2347,49.6928 -9.4728,-14.6776 -22.8319,-35.8786 -40.0772,-63.603 -17.2456,-27.7244 -28.4186,-45.5678 -33.5193,-53.6261 -5.3438,-8.0583 -15.0595,-21.4888 -29.39,-40.0997 -14.3308,-18.6108 -26.7184,-32.0413 -37.1629,-40.0996 -10.4442,-8.0583 -25.7466,-19.858 -45.6638,-35.3031 -19.9171,-15.4451 -42.0205,-30.0268 -65.8241,-43.7451 -23.8035,-13.7183 -53.4364,-30.0268 -88.6559,-48.8295 l -19.9173,-2.782 -12.8733,5.66 c -14.3307,59.0942 -21.3745,94.5892 -21.3745,106.197 0,34.6315 10.2014,73.58 30.8473,116.6535 20.4031,43.1695 52.222,97.2753 95.2142,162.4132 42.9921,65.138 67.7671,103.415 74.3253,114.735 -30.6047,24.4627 -45.664,56.3122 -45.664,95.45249 0,31.2739 24.775,60.62915 74.3253,88.1617 49.5502,27.53254 112.4595,41.25084 188.7279,41.25084 58.2945,0 103.4726,-7.67457 135.7772,-22.92779 32.5478,-15.25322 48.5788,-34.5356 48.5788,-57.94306 0,-24.84644 -20.889,-60.82098 -62.9093,-107.92368 -42.0206,-47.1027 -62.9093,-82.3099 -62.9093,-105.6214 0,-23.6952 21.3745,-43.4573 64.3666,-58.9983 42.992,-15.637 94.9712,-23.4075 155.9374,-23.4075 52.4648,0 101.0435,4.7007 145.9787,14.1021 44.9352,9.4013 82.3407,22.2562 112.2166,38.3729 29.8759,16.1166 56.837,34.0559 80.1547,53.722 23.3177,19.5702 41.5348,40.3875 54.4081,62.4519 12.8733,22.0644 22.3461,42.9776 28.6613,62.7396 6.3153,19.76204 9.2299,38.46882 9.2299,56.21628 0,65.13797 -52.2219,115.88611 -156.6659,152.24441 -104.444,36.35831 -240.4642,54.4895 -408.3034,54.4895 -190.671,0 -350.0088,-24.36678 -477.7706,-73.19628 -127.7617,-48.73356 -191.6427,-110.60983 -191.6427,-185.62881 0,-16.5963 6.0724,-32.6169 17.9741,-48.062 11.9018,-15.4451 24.7751,-27.7244 38.6199,-36.7421 13.845,-9.0176 26.7183,-17.6515 38.6201,-25.7098 11.9018,-8.0583 17.974,-13.8142 17.974,-17.2678 0,-10.5525 -7.0438,-24.2708 -21.3746,-41.2508 -14.3306,-16.98 -32.0617,-25.4221 -52.9507,-25.4221 -1.9431,0 -9.9586,0.5756 -24.2891,1.7268 -48.5788,5.66 -91.8137,16.2125 -129.4621,31.6576 -37.6485,15.4451 -66.7957,33.2885 -87.1986,53.4343 -20.4031,20.1457 -35.9482,40.4834 -46.3927,61.0129 -12.3876,20.6254 -17.4882,40.6752 -17.4882,60.24537 z"
         id="path70"
         inkscape:connector-curvature="0"
         style="fill:#ff9a2b;stroke-width:1.52647543;fill-opacity:1" /></g></g><g
     id="g4792"
     style="fill:#ff9a2b;stroke:#ff9a2b;stroke-width:0.99995705;stroke-miterlimit:4;stroke-dasharray:none;stroke-opacity:1;fill-opacity:1"
     transform="matrix(1,0,0,0.96637201,1.9288142,5.2673628)"><g
       id="g4790"
       style="fill:#ff9a2b;stroke:#ff9a2b;stroke-width:0.99995705;stroke-miterlimit:4;stroke-dasharray:none;stroke-opacity:1;fill-opacity:1"><path
         d="m 148.282,132.748 c 0.124,-0.084 0.236,-0.184 0.336,-0.296 l 73.912,-82.22 -0.104,-0.092 c 1.496,-1.432 2.32,-2.988 2.32,-4.676 0,-13.82 -54.464,-18.836 -91.076,-18.836 -9.44,0 -18.856,0.336 -27.9,0.924 -1.36,-1.008 -2.944,-1.84 -4.824,-2.368 -4.128,-1.156 -8.988,-0.916 -13.664,0.676 -0.564,0.192 -1.08,0.452 -1.624,0.68 L 71.386,0.732 C 70.998,0.044 70.138,-0.2 69.458,0.176 68.774,0.556 68.53,1.416 68.902,2.1 L 83.09,27.756 c -1.344,0.74 -2.576,1.588 -3.704,2.52 -20.312,3.12 -34.548,8.212 -34.548,15.184 0,1.64 0.804,3.172 2.268,4.6 l 27.468,28.056 c 0.184,0.256 0.424,0.504 0.728,0.744 l 52.4,53.524 c 1.092,0.792 2.26,1.396 3.456,1.92 3.272,13.716 0.384,105.66 -0.24,110.548 -0.648,2.384 -2.032,2.836 -5.1,3.64 -0.956,0.248 -1.98,0.54 -2.84,0.872 L 108.282,245.3 c 2.936,-8.592 0.872,-17.256 -5.244,-20.184 -6.812,-3.252 -16.008,1.788 -20.532,11.236 -0.26,0.544 -0.424,1.092 -0.644,1.64 L 53.43,230.128 c -0.768,-0.216 -1.536,0.232 -1.748,0.988 -0.208,0.756 0.236,1.536 0.988,1.744 l 28.26,7.82 c -2.228,8.092 -0.072,15.956 5.696,18.716 1.416,0.676 2.944,1.012 4.528,1.012 2.248,0 4.604,-0.676 6.924,-2.012 3.724,-2.144 6.948,-5.78 9.084,-10.236 0.032,-0.068 0.048,-0.136 0.08,-0.2 l 10.528,2.912 c -4.036,1.476 -6.076,3.416 -6.076,5.796 0,6.796 16.656,8.612 26.5,8.612 6.22,0 15.148,-0.728 20.888,-2.976 l 26.128,7.228 c 0.128,0.036 0.252,0.052 0.38,0.052 0.62,0 1.192,-0.412 1.368,-1.04 0.208,-0.756 -0.236,-1.536 -0.988,-1.744 l -23.336,-6.456 c 1.28,-1.024 2.064,-2.232 2.064,-3.676 0,-3.172 -3.628,-5.568 -10.436,-7.008 -1.272,-0.532 -2.552,-0.864 -3.68,-1.16 -3.076,-0.8 -4.46,-1.256 -5.068,-3.46 -0.652,-4.968 -3.36,-97.9 -0.668,-110.472 1.196,-0.484 2.36,-1.056 3.436,-1.82 z m -53.456,96.576 c 0.108,-0.224 0.344,-0.376 0.548,-0.548 1.076,-0.412 2.152,-0.648 3.18,-0.648 0.38,0 0.744,0.056 1.108,0.116 0.64,0.156 1.288,0.392 1.928,0.696 0.04,0.02 0.08,0.044 0.12,0.068 1.856,1.08 3.064,3.112 3.592,5.652 -0.968,1.344 -3.804,1.472 -6.536,0.168 -2.896,-1.388 -4.7,-3.908 -3.94,-5.504 z m 8.732,17.112 c -1.788,3.736 -4.44,6.752 -7.468,8.5 -2.784,1.6 -5.532,1.912 -7.732,0.856 -4.728,-2.26 -5.752,-10.368 -2.24,-17.704 1.744,-3.644 4.344,-6.516 7.092,-8.224 -0.164,2.208 1.752,4.78 4.916,6.292 1.528,0.732 3.072,1.084 4.436,1.084 1.172,0 2.188,-0.292 2.988,-0.796 0.24,3.068 -0.372,6.604 -1.992,9.992 z m 88.16,-167.912 c -7.056,2.312 -26.8,4.756 -56.24,4.756 -6.736,0 -12.956,-0.128 -18.64,-0.356 l -6.424,-11.616 c 7.312,-0.412 15.688,-0.664 25.064,-0.664 33.188,0 54.004,3.108 58.26,5.628 z m 3.44,-3.828 c -9.732,-6.236 -59.128,-6.32 -59.68,-6.32 -0.276,0 -12.664,0.024 -26.236,0.812 l -3.18,-5.752 c 8.944,0.572 18.284,0.864 27.608,0.864 25.856,0 60.596,-2.508 78.784,-8.848 z M 133.67,30.628 c 53.948,0 87.076,8.64 87.076,14.836 0,6.196 -33.124,14.836 -87.076,14.836 -10.98,0 -20.924,-0.368 -29.884,-0.984 l -4.86,-8.788 c 8.192,-3.912 12.936,-11.448 10.748,-17.868 -0.168,-0.492 -0.452,-0.92 -0.692,-1.372 7.58,-0.412 15.784,-0.66 24.688,-0.66 z m -32.74,-0.896 c 0.172,-0.06 0.36,-0.084 0.548,-0.088 1.412,0.616 2.552,1.444 3.352,2.456 0.428,0.652 0.82,1.368 1.1,2.192 0.016,0.044 0.024,0.088 0.036,0.136 0.528,2.088 -0.08,4.372 -1.528,6.528 -0.704,0.108 -1.484,-0.124 -2.28,-0.796 -1.02,-0.864 -1.876,-2.196 -2.408,-3.76 -0.536,-1.56 -0.672,-3.14 -0.392,-4.444 0.256,-1.176 0.812,-1.964 1.572,-2.224 z M 79.254,36.06 c 2.088,-2.8 5.4,-5.08 9.316,-6.416 2.316,-0.788 4.664,-1.188 6.892,-1.188 1.384,0 2.712,0.176 3.964,0.488 -0.72,0.6 -1.248,1.508 -1.504,2.696 -0.336,1.564 -0.184,3.42 0.432,5.232 0.616,1.812 1.632,3.376 2.856,4.408 0.708,0.596 1.436,0.908 2.164,1.072 -2.028,2.324 -4.992,4.372 -8.56,5.588 -3.916,1.336 -7.932,1.552 -11.296,0.612 -3.096,-0.864 -5.236,-2.612 -6.02,-4.92 -0.792,-2.304 -0.168,-4.996 1.756,-7.572 z m -29.288,11.208 -0.12,0.116 c -0.616,-0.66 -1.008,-1.308 -1.008,-1.924 0,-3.328 9.176,-7.464 26.44,-10.528 -2.04,3.308 -2.66,6.804 -1.572,9.988 1.228,3.592 4.324,6.248 8.732,7.484 1.724,0.484 3.572,0.724 5.476,0.724 2.672,0 5.46,-0.472 8.188,-1.4 0.068,-0.024 0.128,-0.06 0.2,-0.084 l 4.104,7.42 C 73.842,56.98 56.998,52.592 51.194,48.516 Z m 8.528,8.716 c 10.62,3.512 26.492,5.932 44.196,7.224 l 3.416,6.18 C 93.902,70.2 81.454,71.672 76.442,74.332 Z m 19.48,19.908 c 3.704,-1.608 13.824,-3.368 29.308,-4.384 l 6.232,11.268 c -15.48,-0.744 -26.572,-2.2 -32.4,-3.676 z m 60.224,185.388 c -14.888,0 -22.128,-3.324 -22.504,-4.576 0.1,-0.356 1.704,-1.96 7.992,-3.352 0.444,-0.188 0.896,-0.332 1.34,-0.472 l 26.46,7.32 c -3.44,0.632 -7.84,1.08 -13.288,1.08 z m 11.372,-8.908 c 1.024,0.268 2.092,0.54 3.496,1.088 5.936,1.284 7.536,2.884 7.636,3.172 -0.148,0.52 -1.388,1.34 -3.688,2.152 l -26.94,-7.452 c 2.04,-0.868 3.868,-2.32 4.712,-5.428 0.16,-0.592 3.708,-88.796 0.672,-110.28 0.964,0.16 1.932,0.248 2.904,0.248 0.76,0 1.512,-0.072 2.264,-0.168 -2.532,19.768 0.856,109.688 0.992,110.2 1.276,4.728 4.824,5.652 7.952,6.468 z m -19.264,-123 L 83.89,81.94 c 8.28,1.712 20.428,2.612 30.864,3.088 l 20.692,37.416 c 0.26,0.468 0.748,0.732 1.244,0.732 0.236,0 0.468,-0.056 0.688,-0.176 0.684,-0.38 0.928,-1.24 0.556,-1.924 L 118.078,85.172 c 9.684,0.372 17.188,0.388 17.4,0.388 0.476,0 37.168,-0.064 53.572,-4.06 l -43.252,48.108 c -4.668,3.176 -10.96,3.012 -15.492,-0.236 z"
         id="path4788"
         style="fill:#ff9a2b;stroke:#ff9a2b;stroke-width:0.99995705;stroke-miterlimit:4;stroke-dasharray:none;stroke-opacity:1;fill-opacity:1"
         inkscape:connector-curvature="0" /></g></g></svg>